<svg xmlns="http://www.w3.org/2000/svg" viewBox="0 0 1024 1024" role="img" aria-labelledby="title desc">
  <title id="title">Midas avatar placeholder</title>
  <desc id="desc">Abstract golden avatar for Midas, Chisom's personal assistant.</desc>
  <defs>
    <linearGradient id="bg" x1="0" y1="0" x2="1" y2="1">
      <stop offset="0%" stop-color="#1d1508"/>
      <stop offset="55%" stop-color="#6f5317"/>
      <stop offset="100%" stop-color="#f5d779"/>
    </linearGradient>
    <radialGradient id="halo" cx="50%" cy="32%" r="55%">
      <stop offset="0%" stop-color="#fff4c2" stop-opacity="0.95"/>
      <stop offset="55%" stop-color="#f0cf62" stop-opacity="0.25"/>
      <stop offset="100%" stop-color="#f0cf62" stop-opacity="0"/>
    </radialGradient>
  </defs>
  <rect width="1024" height="1024" fill="url(#bg)" rx="80"/>
  <circle cx="512" cy="300" r="270" fill="url(#halo)"/>
  <path d="M512 230c-107 0-194 87-194 194 0 44 15 86 42 120-85 47-146 130-162 228h628c-16-98-77-181-162-228 27-34 42-76 42-120 0-107-87-194-194-194Z" fill="#f8e8ad" opacity="0.95"/>
  <path d="M512 180c35 56 90 101 156 127-36 15-58 28-81 58 14-54 3-109-75-185Z" fill="#fff6d5" opacity="0.7"/>
  <circle cx="440" cy="390" r="18" fill="#5a4312"/>
  <circle cx="584" cy="390" r="18" fill="#5a4312"/>
  <path d="M442 500c47 38 93 56 140 56s93-18 140-56" fill="none" stroke="#7a5a16" stroke-width="26" stroke-linecap="round"/>
  <path d="M315 780c63-53 125-77 197-77s134 24 197 77" fill="none" stroke="#c79d2f" stroke-width="32" stroke-linecap="round" opacity="0.9"/>
</svg>
