<svg xmlns="http://www.w3.org/2000/svg" viewBox="0 0 1600 900" role="img" aria-labelledby="title desc">
  <title id="title">Midas banner</title>
  <desc id="desc">Golden abstract banner for Midas.</desc>
  <defs>
    <linearGradient id="bg" x1="0" y1="0" x2="1" y2="1">
      <stop offset="0%" stop-color="#120d05"/>
      <stop offset="40%" stop-color="#4f3b12"/>
      <stop offset="100%" stop-color="#d4af37"/>
    </linearGradient>
    <radialGradient id="glow" cx="65%" cy="35%" r="45%">
      <stop offset="0%" stop-color="#fff3bf" stop-opacity="0.95"/>
      <stop offset="60%" stop-color="#f6cf65" stop-opacity="0.18"/>
      <stop offset="100%" stop-color="#f6cf65" stop-opacity="0"/>
    </radialGradient>
  </defs>
  <rect width="1600" height="900" fill="url(#bg)"/>
  <circle cx="1070" cy="290" r="360" fill="url(#glow)"/>
  <path d="M0 730c210-84 354-126 530-126 155 0 262 39 435 104 145 54 277 83 635 90V900H0Z" fill="#150f07" opacity="0.55"/>
  <path d="M250 710c125-140 281-228 455-228 171 0 300 76 455 170" fill="none" stroke="#f1d27a" stroke-opacity="0.34" stroke-width="26" stroke-linecap="round"/>
  <path d="M1010 170l52 104 116 17-84 82 20 115-104-54-104 54 20-115-84-82 116-17 52-104Z" fill="#fff2b8" opacity="0.68"/>
</svg>
